<svg width="29" height="27" viewBox="0 0 29 27" fill="none" xmlns="http://www.w3.org/2000/svg">
<path d="M0.748573 24.8859C1.36622 25.4595 2.24857 25.7242 3.08681 25.9448C6.79269 26.9153 10.675 27.0918 14.4692 26.8712C17.2045 26.6948 19.8956 26.43 22.278 25.1065C22.8515 24.7977 23.5574 24.2242 23.6898 23.5624C23.8662 23.1212 23.7339 22.6359 23.425 22.283C22.8515 21.533 21.7927 21.0918 21.0427 20.8712C18.3956 20.0771 11.2486 19.9006 8.0721 20.1212L7.93975 8.47416C9.52798 7.50358 11.2045 6.48887 12.7045 6.13593C13.5427 5.91534 15.3515 5.87122 16.2339 5.51828C17.028 5.16534 17.9986 4.37122 17.9986 3.26828C17.9986 3.18005 17.9545 3.09181 17.9103 3.04769C17.7339 2.87122 17.6456 2.91534 17.4692 2.91534C14.3368 2.91534 10.1456 2.03299 7.76328 0.0918112C7.63093 0.00357594 7.49857 0.00357594 7.36622 0.0918112C7.3221 0.0918112 7.27798 0.0918112 7.27798 0.0918112C7.14563 0.135929 7.0574 0.224164 6.96916 0.356517C6.79269 0.753576 6.79269 2.47416 6.83681 3.09181C7.01328 5.87122 6.92504 5.34181 7.23387 20.1653C6.21916 20.2536 5.20445 20.43 4.18975 20.6506C2.86622 21.0036 0.175043 21.533 0.0426902 22.9448C-0.13378 23.6065 0.263278 24.4889 0.748573 24.8859ZM10.7192 22.9448C9.79269 23.3418 8.8221 23.3859 7.8074 23.3418C6.96916 23.2977 6.08681 23.2095 5.24857 23.0771C5.20445 23.0771 5.20445 23.033 5.16034 23.033C5.68975 22.4595 9.43975 22.1948 10.7633 22.9448C10.7633 22.9006 10.7192 22.9006 10.7192 22.9448ZM17.2486 3.57711C17.0721 4.19475 16.4986 4.68005 15.925 4.90063C15.175 5.20946 13.3662 5.29769 12.528 5.51828C11.028 5.87122 9.43975 6.79769 7.93975 7.72416L7.89563 1.01828C10.4986 2.82711 14.425 3.53299 17.2486 3.57711ZM0.704455 22.8565C0.836808 22.4595 1.58681 21.8859 4.18975 21.2683C4.3221 21.2242 5.38093 20.9595 7.18975 20.783C7.18975 21.1359 7.18975 21.4448 7.23387 21.7977C5.95445 21.8859 4.45445 22.1948 4.45445 22.9889C4.45445 24.6212 11.6015 24.6212 11.6015 22.9889C11.6015 21.93 9.04269 21.7536 7.98387 21.7536V20.6948C10.9397 20.4742 15.7927 20.6065 19.5868 21.18C20.6456 21.3565 22.1456 21.7977 22.8074 22.6359C23.425 23.4742 22.4103 23.9153 21.4397 24.2683C21.2633 24.3124 20.6015 24.6212 18.7927 24.9742C15.7486 25.5477 12.4839 25.7242 8.5574 25.4595C5.51328 25.283 3.21916 24.7536 1.27798 23.783C1.10151 23.6948 0.880926 23.6065 0.79269 23.43C0.660337 23.1653 0.660337 22.9889 0.704455 22.8565Z" fill="#1A202C"/>
<path d="M12.6603 10.8124C12.0427 11.6065 11.8662 12.6212 12.1309 13.5918C12.7927 15.8859 15.7486 16.68 17.4692 14.8712C18.1309 14.2095 18.3956 13.283 18.3074 12.4447C17.9986 9.53298 14.3809 8.47416 12.6603 10.8124ZM15.6162 10.2389C15.5721 10.6359 16.1015 10.7683 16.2339 10.4595C16.7633 10.7242 17.1603 11.1212 17.425 11.6506C17.2045 11.8271 17.2927 12.1359 17.6015 12.1359C17.6898 12.5771 17.6898 12.7095 17.6456 13.0183C17.425 13.1065 17.3809 13.3712 17.5133 13.5477C17.3368 13.9889 17.1162 14.3418 16.7633 14.6065C16.5427 14.3418 16.1898 14.6065 16.278 14.9153C15.8368 15.1359 15.3515 15.2242 14.778 15.18C14.6898 14.8712 14.3368 14.783 14.1603 15.0036C13.278 14.6065 12.6162 13.7683 12.6603 12.7095C13.0133 12.7095 13.1015 12.18 12.7486 12.0918C12.8809 11.5624 13.1898 11.0771 13.675 10.7242C13.8956 10.9889 14.3368 10.8124 14.2927 10.3712C14.6898 10.1947 15.1309 10.1506 15.6162 10.2389Z" fill="#1A202C"/>
<path d="M16.0133 11.7389C16.1456 11.6507 16.1898 11.4301 16.1015 11.2536C15.8368 10.9007 15.2633 11.2977 15.5721 11.6507C15.6603 11.8272 15.8809 11.8713 16.0133 11.7389Z" fill="#1A202C"/>
<path d="M13.9397 12.136C14.028 12.2683 14.2486 12.3125 14.425 12.2242C14.5574 12.136 14.6015 11.9154 14.5133 11.7389C14.2486 11.3419 13.675 11.7389 13.9397 12.136Z" fill="#1A202C"/>
<path d="M15.1309 13.3713C15.2633 13.283 15.2633 13.0625 15.175 12.9301C14.9103 12.5772 14.425 13.0183 14.6897 13.3272C14.8221 13.4595 14.9986 13.4595 15.1309 13.3713Z" fill="#1A202C"/>
<path d="M16.8515 13.3713C16.9839 13.283 16.9839 13.0625 16.8956 12.9301C16.6309 12.5772 16.1456 13.0183 16.4103 13.3272C16.5427 13.4595 16.7633 13.4595 16.8515 13.3713Z" fill="#1A202C"/>
<path d="M15.2633 14.6506C15.3515 14.783 15.5721 14.783 15.7045 14.6948C15.8368 14.6065 15.8368 14.3859 15.7486 14.2536C15.4839 13.9006 14.9545 14.3418 15.2633 14.6506Z" fill="#1A202C"/>
<path d="M13.4986 13.4595C13.278 13.3271 12.9692 13.5477 13.0133 13.8124C13.0574 13.9448 13.1898 14.033 13.3221 14.033C13.4545 14.033 13.5868 13.9448 13.6309 13.8124C13.675 13.6801 13.6309 13.5477 13.4986 13.4595Z" fill="#1A202C"/>
<path d="M27.8809 5.12125C28.0574 5.12125 28.2339 4.9889 28.2339 4.81243C28.2339 4.63596 28.1015 4.45949 27.9251 4.45949C23.9103 4.10655 19.7633 5.7389 17.1162 8.7389C16.9839 8.87125 17.028 9.09184 17.1603 9.2242C17.2927 9.35655 17.5133 9.31243 17.6456 9.18008C20.1603 6.35655 24.0868 4.81243 27.8809 5.12125Z" fill="#1A202C"/>
<path d="M26.3809 10.3271C26.425 10.1506 26.2927 9.97412 26.1162 9.97412C24.0427 9.70942 21.8809 10.0624 20.028 11.0329C19.8515 11.1212 19.8074 11.2977 19.8956 11.4741C19.9839 11.6506 20.1603 11.6947 20.3368 11.6065C22.0574 10.7241 24.0868 10.3712 26.028 10.5918C26.2044 10.6359 26.3368 10.5035 26.3809 10.3271Z" fill="#1A202C"/>
<path d="M25.2339 16.0183C25.3221 15.886 25.3221 15.6654 25.1456 15.533C23.9103 14.6066 22.4103 14.1213 20.8662 14.0771C20.6897 14.0771 20.5133 14.2095 20.5133 14.386C20.5133 14.5624 20.6456 14.7389 20.8221 14.7389C22.2339 14.7389 23.6015 15.2242 24.7045 16.0624C24.925 16.1948 25.1456 16.1948 25.2339 16.0183Z" fill="#1A202C"/>
</svg>
