<svg width="20" height="21" viewBox="0 0 20 21" fill="none" xmlns="http://www.w3.org/2000/svg">
<g clip-path="url(#clip0_13_147)">
<path d="M15.1562 0.923425C15.2851 0.951626 15.3937 1.04422 15.3858 1.22142C15.3415 2.10732 15.2932 2.99717 15.0717 3.85891C15.0999 4.1005 14.9509 4.38233 14.673 4.34613C12.6919 4.08442 11.9711 5.86825 11.7134 7.87751C12.6556 7.93392 13.5898 8.00639 14.4999 8.08687C14.669 8.10294 14.7616 8.21979 14.7817 8.34858C14.83 8.38082 14.8743 8.42914 14.8944 8.50161C15.0554 9.02512 15.0595 9.61294 15.0716 10.1606C15.0797 10.5914 15.132 11.0787 14.842 11.4209C14.8783 11.6223 14.7696 11.8558 14.4998 11.8639C13.5334 11.8759 12.5549 11.8921 11.5724 11.9002C11.5724 11.9968 11.5724 12.0934 11.5683 12.182C11.4999 14.8114 11.6126 17.4327 11.5844 20.0581C11.5804 20.2635 11.4153 20.3399 11.2663 20.3118C11.2462 20.3238 11.2261 20.34 11.2019 20.348C10.7066 20.5051 10.1469 20.4809 9.63155 20.497C9.12016 20.509 8.61686 20.5212 8.10943 20.4326C7.98459 20.4728 7.83155 20.4326 7.80344 20.2675C7.34845 17.6663 7.42497 14.9202 7.43701 12.2867C7.43701 12.1216 7.43701 11.9566 7.43701 11.7914C6.63571 11.739 5.83846 11.6585 5.05324 11.5458C4.93244 11.5257 4.872 11.4451 4.864 11.3525C4.57409 11.1592 4.64253 10.6519 4.63849 10.3338C4.62636 9.64922 4.54993 8.85601 4.74716 8.19563C4.76728 8.12719 4.8156 8.08291 4.87604 8.05067C4.91223 8.01043 4.96459 7.98223 5.03707 7.97415C5.83837 7.87751 6.66382 7.82111 7.49736 7.79291C7.5376 7.03589 7.60612 6.27887 7.72288 5.53802C8.2745 2.0026 11.3066 -0.143623 14.8863 0.681833C15.0354 0.718028 15.1199 0.814665 15.1562 0.923425Z" fill="#F0FFF4"/>
</g>
<defs>
<clipPath id="clip0_13_147">
<rect width="20" height="20" fill="white" transform="translate(0 0.505371)"/>
</clipPath>
</defs>
</svg>
