<svg width="40" height="32" viewBox="0 0 40 32" fill="none" xmlns="http://www.w3.org/2000/svg">
<path d="M0.424107 23.3372C3.40841 23.8798 14.0344 23.2468 16.2048 23.2468C16.2048 23.4728 16.1595 25.9598 16.1595 26.0503C14.803 26.0503 5.89526 26.0955 2.77529 26.1407C2.50398 26.1407 2.14225 26.3216 2.00659 26.5928C1.55445 27.678 1.05707 28.8084 0.60485 29.8937C0.333535 30.4815 0.650096 31.2502 1.37355 31.2502C11.6378 31.2502 35.1505 31.2049 36.5974 31.2049C37.7279 31.2049 37.7279 29.4415 36.5974 29.4415C26.3332 29.4415 3.72481 29.3962 2.73005 29.3962C2.95611 28.8988 3.18218 28.4014 3.36309 27.8588C13.7177 27.7684 37.2757 27.6779 37.4566 27.6779C37.8183 28.5823 38.1801 29.4865 38.6323 30.3457C39.0393 31.0692 40.1244 30.5718 39.9435 29.8031C39.7175 28.7631 39.4009 27.6327 38.9035 26.6831C38.587 26.0953 38.3157 25.9597 37.7279 25.9144C35.9192 25.7788 26.7402 25.9144 23.9819 25.9144C24.0272 25.7788 23.8915 23.9249 23.8915 23.111C28.9106 23.1562 33.9297 23.2466 38.9487 23.4274C40.3504 23.4727 40.3504 21.3022 38.9487 21.257C37.9539 21.2117 36.9139 21.1666 35.9191 21.1666C35.3313 15.6954 32.1661 10.0885 27.147 7.60155C25.2028 6.65203 22.9871 6.06415 20.7715 5.92849C20.8167 5.79283 20.7715 4.16502 20.681 3.53198H23.801C25.5192 3.53198 25.5192 0.954647 23.801 0.864155C22.128 0.773744 20.5454 0.773744 18.8723 0.909401C17.4254 0.999813 15.888 0.999813 14.5767 1.6781C13.8532 2.03983 14.0793 3.12501 14.8028 3.35116C15.8428 3.66764 17.0184 3.62247 18.1488 3.57723C18.0584 4.21027 18.0131 5.83808 18.0584 5.97374C16.2498 6.10939 14.441 6.56153 12.8132 7.28499C9.06022 8.95804 6.34723 12.0328 4.71942 15.6501C4.08638 17.097 3.13686 21.1213 3.13686 21.6187C2.18733 21.7091 1.28298 21.89 0.423866 22.1614C-0.118523 22.2973 -0.163689 23.2015 0.424107 23.3372ZM21.7665 26.005C20.6813 26.005 19.596 26.005 18.5108 26.005C18.5108 25.9146 18.5108 23.3824 18.4656 23.2015H19.5508H21.8568C21.676 23.9702 21.7212 25.8694 21.7665 26.005ZM5.80492 17.9564C6.9806 14.8364 8.83448 11.9425 11.6831 10.0886C15.5265 7.64695 20.8169 7.33039 25.0221 8.9582C28.3681 10.2695 30.855 13.0277 32.2568 16.2833C32.7994 17.5494 33.2063 18.9059 33.4776 20.2624C33.5229 20.5789 33.6133 20.8954 33.6585 21.1667C28.956 21.0763 24.2534 21.0311 19.5057 21.0763C16.3405 21.1216 13.1754 21.212 10.0101 21.3024C8.33709 21.3476 6.5737 21.3476 4.81024 21.4381C5.21705 20.3529 5.39795 19.0416 5.80492 17.9564Z" fill="#1A202C"/>
<path d="M19.1891 11.807C20.2742 12.4853 21.5856 12.7565 22.716 13.3444C23.8917 13.9774 24.8412 14.8365 25.9716 15.6052C27.2377 16.5096 28.2776 14.6557 27.509 13.6609C25.9265 11.6261 22.0378 9.59144 19.4152 10.3149C18.6917 10.4956 18.6013 11.4452 19.1891 11.807Z" fill="#1A202C"/>
<path d="M27.5542 17.5945C27.5994 18.0015 27.8707 18.318 28.1872 18.5441V18.5893C28.3681 18.8154 28.5942 18.9058 28.8655 18.951C29.589 19.0414 30.0863 18.318 30.0863 17.6398C30.0863 17.0067 29.6342 16.2833 28.9559 16.1929C28.1421 16.012 27.4185 16.7354 27.5542 17.5945Z" fill="#1A202C"/>
</svg>
