<svg width="46" height="32" viewBox="0 0 46 32" fill="none" xmlns="http://www.w3.org/2000/svg">
<path d="M45.5 11.8994C45.5 11.3494 45 10.7493 44.3999 10.7993C43.4497 10.8993 42.4496 10.9493 41.4494 11.0493C41.1494 7.79893 40.1492 4.74852 39.3992 1.59812C39.2492 0.94806 38.5491 0.798033 37.999 0.99801C33.5484 2.99832 29.0979 4.99854 24.4972 6.59871C22.2969 7.34885 20.0967 8.0989 17.8964 8.64897C15.8961 9.19904 13.7959 9.49909 11.7955 10.0492C8.89516 9.74911 5.99478 9.34906 3.0944 9.09905C1.09418 8.89898 0.744085 10.7993 1.89427 11.3993C2.84438 11.8994 3.74455 12.4995 4.49459 13.2496C5.04467 13.7997 6.44486 14.9998 6.49481 15.7999C6.49481 16.5 4.49459 17.4501 3.99447 17.8002C3.04436 18.4503 2.0442 19.1004 1.09409 19.7505C0.49398 20.1505 0.243964 21.1006 0.844073 21.6507C2.34426 23.0509 4.04451 24.3011 5.94474 25.3012C4.39452 26.3513 2.94437 27.5515 1.59421 28.9017C0.994101 29.5018 1.44418 30.7019 2.34435 30.6519C13.2458 30.4518 24.1973 30.3019 35.0987 30.8019C38.2491 30.952 44.4999 32.4021 45.2 27.8016C45.55 25.3513 45.3501 22.7009 45.4001 20.2006C45.5 17.4002 45.5 14.6498 45.5 11.8994ZM25.2974 8.69901C29.598 7.09883 33.7485 5.24855 37.849 3.19829C38.5992 5.79862 39.2992 8.44899 39.5493 11.1493C34.2486 11.4494 28.9479 11.3993 23.6472 11.1493C22.047 11.0493 20.4467 10.9492 18.8466 10.8493C21.0968 10.2492 23.2971 9.44914 25.2974 8.69901ZM41.5495 28.6016C40.5994 28.8017 39.5492 28.7016 38.5491 28.7016C36.1488 28.6516 33.7485 28.6016 31.3482 28.5516C22.547 28.3016 13.7459 28.3016 4.99472 28.5516C6.04482 27.6514 7.14496 26.7514 8.29514 26.0012C8.84521 25.6512 8.9452 24.7511 8.29514 24.4011C6.54494 23.4509 4.94468 22.3008 3.49453 21.0006C4.59467 20.2505 5.69481 19.5005 6.79496 18.7503C7.8951 18.0002 9.04528 17.3002 8.79517 15.7999C8.59511 14.5497 7.545 13.3496 6.74492 12.4494C6.39491 12.0494 5.99478 11.6493 5.59474 11.2992C7.64499 11.7493 9.74529 12.0993 11.8456 12.3493C11.7456 12.5994 11.6956 12.8994 11.6455 13.1995C11.5455 13.7495 11.7955 14.3996 12.3957 14.4997C12.8957 14.5997 13.6458 14.3497 13.6959 13.7495C13.7459 13.3495 13.7959 12.9994 13.7959 12.5994C23.5471 13.7495 33.5485 13.5495 43.2497 13.0494C43.0997 17.35 42.9997 21.6506 42.9496 25.9511C42.8997 27.2514 42.9497 28.3016 41.5495 28.6016Z" fill="#1A202C"/>
<path d="M39.0992 15.5999C38.2491 15.9499 37.499 16.55 36.7989 17.2001C35.2987 17 33.5985 16.95 32.1483 17.05C30.8982 17.15 30.9482 18.8002 32.1483 18.9503C32.9484 19.0502 33.7986 19.2003 34.5987 19.3003C33.7485 20.1003 32.8484 20.9505 31.9983 21.8006C31.5482 21.4006 31.0982 21.0005 30.5981 20.6005C30.1981 20.3004 29.698 20.2004 29.2979 20.5005C28.8979 20.8005 28.6978 21.4006 28.9979 21.8007C30.098 23.2508 31.3482 24.7511 32.7484 25.9512C33.0484 26.2013 33.4985 26.4013 33.8986 26.2513C34.1486 26.1513 34.4486 26.0013 34.5987 25.7012C34.8487 25.2012 34.7987 24.7011 34.3986 24.301C34.1985 24.051 33.9485 23.801 33.7485 23.5509C34.6486 22.7008 35.5488 21.8007 36.4488 20.9005C36.4989 21.1006 36.5488 21.3006 36.5989 21.5006C36.7489 22.2508 36.8489 22.9508 37.199 23.6509C37.549 24.351 38.6992 24.1509 38.8492 23.4508C39.0493 22.6007 38.8992 21.7506 38.7992 20.9005C38.6992 20.2505 38.5991 19.6504 38.3991 19.0502C39.0992 18.4002 39.6993 17.65 40.0493 16.85C40.2993 16.2499 39.8493 15.2998 39.0992 15.5999Z" fill="#1A202C"/>
<path d="M12.8958 16.2001C12.6458 16.1501 12.3958 16.3001 12.2457 16.5002C12.0957 16.7003 11.9957 16.8502 11.8957 17.1003C11.8457 17.3004 11.7457 17.4503 11.6957 17.6504C11.4956 18.1504 11.9457 18.7005 12.4458 18.7505C12.9959 18.8505 13.3959 18.4005 13.4459 17.9004C13.4459 17.7003 13.496 17.5003 13.496 17.3503C13.496 17.1502 13.4459 16.9002 13.396 16.7003C13.3958 16.4001 13.1458 16.2501 12.8958 16.2001Z" fill="#1A202C"/>
<path d="M12.6457 20.2005C12.3456 20.1505 11.9956 20.3005 11.8456 20.6006C11.5956 21.1006 11.2455 21.7007 11.2455 22.2508C11.2455 22.8009 11.6956 23.2509 12.1956 23.3009C12.7457 23.3509 13.2457 23.0509 13.3957 22.5008C13.5457 21.9507 13.4458 21.3007 13.3457 20.7506C13.2958 20.5005 12.9457 20.2505 12.6457 20.2005Z" fill="#1A202C"/>
<path d="M11.8456 25.4013C11.6455 26.0014 11.5956 26.6515 11.5455 27.3016C11.4955 28.3517 13.1957 28.3517 13.1957 27.3016C13.1957 26.6515 13.0957 26.0013 12.8957 25.4013C12.7457 24.8513 11.9956 24.8513 11.8456 25.4013Z" fill="#1A202C"/>
<path d="M23.7472 15.95C21.9469 15.4999 19.6966 15.7499 17.8464 15.85C17.0463 15.9 16.7463 17.2001 17.6463 17.3502C19.5966 17.6002 21.7969 18.1003 23.7472 17.8002C24.6973 17.6002 24.5973 16.15 23.7472 15.95Z" fill="#1A202C"/>
<path d="M18.0464 20.6505C18.5464 20.7006 18.9465 20.7006 19.4466 20.6005C20.2467 20.4004 20.2467 19.1503 19.4466 18.9503C18.9965 18.8503 18.5465 18.8503 18.0464 18.9002C17.5963 18.9002 17.1463 19.3003 17.1963 19.7504C17.1963 20.2505 17.5464 20.6006 18.0464 20.6505Z" fill="#1A202C"/>
<path d="M23.0971 21.8508C21.3469 21.8007 19.5467 21.8508 17.8464 22.2008C16.8963 22.4009 17.2463 23.701 18.0465 23.801C19.6967 24.001 21.4469 23.901 23.0971 23.701C24.2472 23.5509 24.2972 21.8508 23.0971 21.8508Z" fill="#1A202C"/>
</svg>
