<svg width="40" height="53" viewBox="0 0 40 53" fill="none" xmlns="http://www.w3.org/2000/svg">
<path d="M39.9624 21.0222C40.0583 20.6386 39.9624 20.3509 39.7706 20.1591C39.9624 19.6796 39.6747 19.0083 39.1952 18.7206C32.77 16.2272 27.1119 11.9118 21.358 8.07579C17.3302 5.39062 13.0148 3.18495 8.60342 1.07517C8.50752 1.07517 8.41162 0.979271 8.31572 0.979271C7.93212 0.403877 6.97313 0.499776 6.78134 1.26697C6.68544 1.65056 6.58954 2.03416 6.49364 2.41776L6.39774 2.51365C6.30184 2.41776 6.20594 2.32186 6.11004 2.32186C5.91825 2.22596 5.72645 2.32186 5.63055 2.41776H5.53465C5.43875 2.41776 5.43875 2.51365 5.53465 2.51365C5.82235 2.51365 5.53465 2.70545 5.53465 2.60955C5.24695 2.89725 5.15106 3.37674 4.95926 3.66444C4.38386 4.81523 3.52077 5.77422 2.84948 6.82911C2.08229 7.884 -0.698781 10.2815 0.16431 11.8159C0.16431 11.9118 0.260209 11.9118 0.260209 12.0077C-0.123387 18.4329 0.356107 24.8581 0.547905 31.2833C0.739703 37.6127 0.452007 44.4215 1.60279 50.7507C1.69869 51.2303 1.98639 51.422 2.36999 51.422C4.09617 55.2579 16.5632 47.1065 18.0976 46.1475C22.5088 43.3665 26.8242 40.3936 30.948 37.2289C32.7701 35.7904 37.8526 32.9135 38.2364 30.4201C38.3322 30.0367 38.1405 29.749 37.9487 29.557C38.7157 26.7761 39.5786 23.899 39.9624 21.0222ZM36.2223 29.6531C34.5922 30.5161 32.8659 32.6259 31.6192 33.6808C27.975 36.5578 24.2349 39.243 20.399 41.8322C15.0288 45.4765 9.46651 48.737 3.23308 50.4631C3.80847 44.2299 2.94538 37.5168 2.65768 31.2835C2.46588 24.8583 2.46588 18.3371 1.60279 12.0078C2.08229 11.7201 2.36999 11.2406 2.65768 10.7611C3.42487 9.70623 4.19207 8.65134 4.95926 7.59646C5.34285 7.02106 5.91825 6.25387 6.39774 5.39078C6.49364 6.82926 6.68544 8.26775 6.68544 9.61033C6.87724 13.8299 7.06904 18.0494 7.26083 22.269C7.45263 25.9132 7.54853 29.5573 7.54853 33.2015C7.54853 35.7908 6.97314 38.6679 7.45263 41.257C7.54853 41.9283 8.60342 41.9283 8.89112 41.4489C8.98701 41.3531 9.08291 41.1613 9.08291 40.9693C9.37061 41.3529 9.75421 41.5447 10.2337 41.4489C16.2753 40.3941 22.317 35.4072 27.1119 31.9549C30.1807 29.845 33.1535 27.6395 35.9346 25.146C36.3182 24.8583 36.7018 24.5706 37.0854 24.187C36.7018 26.1048 36.4141 27.9269 36.2223 29.6531ZM23.3719 31.6668C20.3031 33.7767 17.1386 35.6945 13.9738 37.5166C12.823 38.1879 10.905 38.7633 9.65831 39.6266C11.1927 34.9275 9.946 27.9269 9.7542 23.6113C9.56241 19.3917 9.37061 15.1722 9.17881 10.8567C9.08291 8.74693 9.27471 6.15766 9.08291 3.85608C13.4944 6.34946 17.8097 8.65103 22.0293 11.4321C25.5777 13.8296 29.1258 16.3229 32.7701 18.4327C34.1125 19.1999 35.743 20.2548 37.3733 20.6384C33.3453 24.954 28.2627 28.3103 23.3719 31.6668Z" fill="white"/>
</svg>
