<svg width="40" height="43" viewBox="0 0 40 43" fill="none" xmlns="http://www.w3.org/2000/svg">
<path d="M19.3994 33.2678C27.1257 33.4511 35.078 29.0278 35.2604 21.9408C35.447 14.6759 27.5122 10.0063 20.0019 9.81325C12.4441 9.63817 4.32681 13.8898 4.1412 21.1402C3.95391 28.4034 11.8865 33.0747 19.3994 33.2678ZM5.47337 18.8933C5.50086 18.9077 5.52462 18.9272 5.55563 18.9362C6.24026 19.1339 6.94717 19.2554 7.65621 19.2962C7.66567 19.2968 7.67482 19.2968 7.68367 19.2968C7.93019 19.2968 8.13674 19.1046 8.15108 18.8551C8.16603 18.597 7.96894 18.3755 7.71052 18.3602C7.07104 18.3236 6.43339 18.2144 5.81557 18.0356C5.80771 18.0333 5.79997 18.0355 5.79211 18.0337C7.98373 13.087 14.2955 10.5913 19.9781 10.7505C20.3107 10.759 20.6381 10.7871 20.9664 10.8117L20.5267 12.0459C20.4397 12.29 20.5673 12.5579 20.811 12.6451C21.0527 12.7305 21.3221 12.6063 21.4096 12.3608L21.9185 10.9323C21.9215 10.9238 21.9197 10.9153 21.9222 10.9067C28.2289 11.6881 34.4789 15.8519 34.3234 21.9164C34.2914 23.1629 33.9697 24.3524 33.4122 25.4541L32.3135 24.9192C32.0804 24.805 31.8 24.9027 31.6868 25.1346C31.5736 25.3676 31.67 25.6483 31.9028 25.7612L32.9458 26.269C30.5693 29.9822 25.3791 32.4886 19.4232 32.3305C18.773 32.3139 18.1343 32.255 17.5019 32.1775L18.099 30.8331C18.2043 30.597 18.0978 30.32 17.8614 30.2144C17.624 30.1094 17.3476 30.2162 17.2429 30.4524L16.558 31.9931C16.5501 32.0108 16.5514 32.0294 16.5459 32.0476C12.8708 31.4104 9.2362 29.6589 6.97539 26.6877C7.33796 26.6132 7.69099 26.4933 8.01806 26.3189C8.24657 26.1969 8.33292 25.9132 8.21088 25.6843C8.08914 25.4555 7.80418 25.3707 7.57689 25.4915C7.2094 25.688 6.80027 25.7981 6.38495 25.8248C5.49857 24.3717 5.03616 22.7903 5.07785 21.1646C5.09783 20.3887 5.23795 19.6299 5.47337 18.8933Z" fill="#1A202C"/>
<path d="M39.8244 21.6957C39.6252 12.4929 30.1153 6.30478 20.4779 6.05752C10.1123 5.8072 0.664049 11.862 0.0389651 22.0778C-0.570339 32.0357 5.97891 41.0061 18.7922 41.9615C31.0394 42.8747 41.4922 33.9314 39.8244 21.6957ZM20.4538 6.99477C31.5068 7.27813 39.0868 14.6462 38.8907 22.2813C38.6615 31.1825 29.0923 36.8546 19.6929 36.6013C8.6398 36.3179 1.05986 28.9499 1.25592 21.3148C1.44658 13.9112 9.13803 6.69958 20.4538 6.99477Z" fill="#1A202C"/>
<path d="M17.1713 21.161C17.176 21.1677 17.184 21.1699 17.1891 21.1762C16.9274 21.9658 17.1021 23.0842 17.8973 23.936C17.7937 23.9435 17.6912 23.9785 17.6097 24.0551C16.3359 25.2511 14.9785 26.3525 13.5754 27.3294C13.3627 27.4771 13.3106 27.7694 13.4582 27.9817C13.6059 28.1931 13.8972 28.2468 14.1105 28.0982C15.5512 27.0957 16.9443 25.965 18.251 24.7385C18.3564 24.6398 18.3997 24.5044 18.3921 24.3707C18.8971 24.7343 19.4918 24.9742 20.2607 25.0403C20.6693 25.4815 26.0374 29.3401 27.8496 30.0661C28.2085 30.2099 28.399 30.1703 28.4902 30.0637C28.6085 29.9256 28.56 29.6752 28.4958 29.5664C27.1594 27.302 25.7104 25.3145 23.9993 22.9112C24.2522 22.0152 24.07 21.1691 23.6055 20.5434C23.7502 20.4774 23.3757 20.7314 27.5427 17.509C27.7471 17.3497 27.784 17.0556 27.6254 16.8512C27.4667 16.6462 27.172 16.6108 26.9679 16.7682C22.9374 19.935 23.0864 19.7026 22.9864 19.9461C22.9592 19.9268 22.9394 19.9046 22.911 19.8857C22.8095 19.8181 22.6914 19.7987 22.5796 19.816C22.0266 18.8444 20.8392 18.4503 19.7296 18.738C17.2377 16.449 15.9047 15.5721 13.0128 13.4024C12.8276 13.2633 12.5692 13.2803 12.4041 13.4414C12.2388 13.6031 12.2159 13.8613 12.3501 14.0492C14.3254 16.8174 15.1889 18.3838 17.1713 21.161ZM26.5673 28.2398C25.0145 27.2712 23.3288 26.3177 21.6186 24.9522C24.7112 24.2904 22.2448 21.6105 26.5673 28.2398ZM23.1582 21.8487C23.5998 24.4681 18.9977 24.9551 18.1488 22.6114C17.9667 22.1091 17.9669 21.6845 18.1345 21.338C18.8788 23.4737 22.4478 23.2566 22.8042 21.0377C23.0097 21.2851 23.1078 21.5488 23.1582 21.8487ZM22.2136 20.7619C22.2034 21.4755 21.5364 22.1954 20.408 22.2068C19.4832 22.1941 18.6323 21.5662 18.6446 20.71C18.6571 19.8344 19.5611 19.2651 20.4175 19.2651C21.3531 19.2651 22.226 19.8925 22.2136 20.7619ZM18.8188 19.1765C18.403 19.4997 18.1652 19.8899 18.0685 20.3206C17.9607 20.2909 17.8458 20.299 17.7444 20.3467C14.1086 15.2058 12.9784 13.8754 18.8188 19.1765Z" fill="#1A202C"/>
<path d="M23.4886 5.35704C23.7656 5.35704 23.9809 5.11961 23.956 4.8457C23.8227 3.38441 23.7763 2.71505 23.6435 1.2535C23.6198 0.99539 23.3842 0.802569 23.1343 0.828807C22.8765 0.852605 22.6868 1.08021 22.71 1.33771C22.8403 2.7757 22.8949 3.52711 23.0224 4.93113C23.0446 5.17398 23.2491 5.35704 23.4886 5.35704Z" fill="#1A202C"/>
<path d="M26.6216 5.43574C27.1619 4.06506 27.4499 3.06397 27.9866 1.70198C28.0815 1.46095 27.9631 1.1888 27.7224 1.09361C27.4826 1.00026 27.2095 1.1168 27.1146 1.35783C26.5702 2.73999 26.2845 3.73392 25.7496 5.09281C25.6547 5.33323 25.7731 5.60537 26.0138 5.70056C26.2554 5.79457 26.5269 5.67689 26.6216 5.43574Z" fill="#1A202C"/>
<path d="M29.4968 6.17229C30.4164 4.85672 30.8847 4.263 32.0236 3.10852C32.2055 2.92485 32.2036 2.62769 32.0193 2.44585C31.8354 2.26523 31.5382 2.26584 31.3567 2.45073C30.1787 3.64366 29.6674 4.29229 28.7286 5.63532C28.5803 5.84767 28.6322 6.13934 28.8442 6.28762C29.0556 6.43591 29.3483 6.38491 29.4968 6.17229Z" fill="#1A202C"/>
</svg>
