<svg width="35" height="37" viewBox="0 0 35 37" fill="none" xmlns="http://www.w3.org/2000/svg">
<path d="M16.9744 28.8422C23.735 29.0026 30.6932 25.1322 30.8528 18.9311C31.0161 12.5743 24.0732 8.48838 17.5017 8.3195C10.8886 8.1663 3.78595 11.8865 3.62354 18.2306C3.45966 24.5859 10.4007 28.6733 16.9744 28.8422ZM4.78919 16.2645C4.81325 16.2771 4.83404 16.2942 4.86117 16.3021C5.46022 16.4751 6.07877 16.5813 6.69918 16.6171C6.70745 16.6176 6.71546 16.6176 6.7232 16.6176C6.93891 16.6176 7.11964 16.4495 7.13219 16.2311C7.14527 16.0052 6.97281 15.8114 6.7467 15.7981C6.18715 15.766 5.62921 15.6705 5.08861 15.514C5.08174 15.512 5.07497 15.514 5.06809 15.5124C6.98576 11.184 12.5085 9.00026 17.4809 9.13959C17.7719 9.14707 18.0583 9.17163 18.3456 9.19312L17.9608 10.2731C17.8848 10.4867 17.9963 10.7211 18.2096 10.7974C18.4211 10.872 18.6568 10.7634 18.7334 10.5486L19.1787 9.2987C19.1813 9.29123 19.1797 9.28375 19.1819 9.27628C24.7002 9.95995 30.1691 13.6033 30.033 18.9098C30.0049 20.0004 29.7235 21.0413 29.2357 22.0052L28.2743 21.5372C28.0703 21.4373 27.825 21.5227 27.7259 21.7256C27.6269 21.9296 27.7113 22.1752 27.9149 22.274L28.8276 22.7183C26.7481 25.9673 22.2067 28.1604 16.9953 28.0221C16.4264 28.0076 15.8675 27.9561 15.3142 27.8882L15.8366 26.7119C15.9288 26.5053 15.8356 26.2629 15.6287 26.1705C15.421 26.0787 15.1791 26.1721 15.0876 26.3787L14.4882 27.7269C14.4814 27.7424 14.4825 27.7586 14.4777 27.7745C11.262 27.217 8.08167 25.6844 6.10346 23.0847C6.42071 23.0195 6.72961 22.9145 7.01579 22.762C7.21574 22.6552 7.29129 22.4069 7.18451 22.2067C7.07799 22.0065 6.82865 21.9323 6.62977 22.038C6.30822 22.2099 5.95022 22.3063 5.58683 22.3296C4.81124 21.0581 4.40663 19.6745 4.44311 18.252C4.46059 17.573 4.58319 16.909 4.78919 16.2645Z" fill="#F0FFF4"/>
<path d="M34.8463 18.7168C34.6721 10.6644 26.3509 5.24974 17.9181 5.03339C8.84825 4.81436 0.581043 10.1123 0.0340945 19.0511C-0.499046 27.7643 5.23155 35.6134 16.4432 36.4494C27.1594 37.2484 36.3057 29.423 34.8463 18.7168ZM17.8971 5.85349C27.5685 6.10143 34.2009 12.5485 34.0294 19.2292C33.8288 27.0178 25.4558 31.9809 17.2313 31.7592C7.55983 31.5112 0.927374 25.0642 1.09893 18.3835C1.26575 11.9053 7.99577 5.5952 17.8971 5.85349Z" fill="#F0FFF4"/>
<path d="M15.0249 18.2487C15.029 18.2546 15.036 18.2565 15.0404 18.2621C14.8115 18.953 14.9643 19.9316 15.6602 20.6769C15.5695 20.6835 15.4798 20.7141 15.4085 20.7811C14.2939 21.8276 13.1062 22.7913 11.8785 23.6461C11.6924 23.7753 11.6468 24.0311 11.776 24.2169C11.9052 24.4018 12.1601 24.4489 12.3467 24.3188C13.6073 23.4416 14.8262 22.4523 15.9696 21.3791C16.0618 21.2927 16.0997 21.1743 16.0931 21.0572C16.535 21.3754 17.0553 21.5853 17.7281 21.6431C18.0856 22.0292 22.7827 25.4055 24.3684 26.0407C24.6825 26.1666 24.8491 26.1319 24.9289 26.0387C25.0324 25.9178 24.99 25.6987 24.9338 25.6035C23.7645 23.6221 22.4966 21.883 20.9994 19.7801C21.2207 18.9962 21.0613 18.2558 20.6548 17.7083C20.7814 17.6506 20.4537 17.8728 24.0999 15.0532C24.2787 14.9139 24.311 14.6565 24.1722 14.4777C24.0334 14.2983 23.7755 14.2673 23.5969 14.4051C20.0702 17.176 20.2006 16.9726 20.1131 17.1857C20.0893 17.1688 20.0719 17.1494 20.0472 17.1328C19.9583 17.0737 19.855 17.0568 19.7572 17.0718C19.2733 16.2218 18.2343 15.8769 17.2634 16.1286C15.083 14.1258 13.9166 13.3584 11.3862 11.46C11.2242 11.3382 10.998 11.3532 10.8536 11.4941C10.7089 11.6356 10.6889 11.8615 10.8064 12.0259C12.5347 14.4481 13.2903 15.8187 15.0249 18.2487ZM23.2464 24.4427C21.8877 23.5952 20.4127 22.7608 18.9163 21.566C21.6223 20.987 19.4642 18.6421 23.2464 24.4427ZM20.2634 18.8505C20.6498 21.1424 16.623 21.5686 15.8802 19.5179C15.7209 19.0783 15.7211 18.7068 15.8677 18.4036C16.5189 20.2723 19.6419 20.0824 19.9537 18.1409C20.1335 18.3574 20.2193 18.588 20.2634 18.8505ZM19.4369 17.8995C19.4279 18.524 18.8444 19.1539 17.857 19.1639C17.0478 19.1527 16.3033 18.6033 16.314 17.8542C16.325 17.088 17.116 16.5898 17.8653 16.5898C18.6839 16.5898 19.4478 17.1388 19.4369 17.8995ZM16.4665 16.5123C16.1027 16.7952 15.8946 17.1365 15.8099 17.5134C15.7156 17.4874 15.6151 17.4945 15.5264 17.5363C12.345 13.038 11.3561 11.8739 16.4665 16.5123Z" fill="#F0FFF4"/>
<path d="M20.5525 4.42035C20.7949 4.42035 20.9833 4.2126 20.9615 3.97293C20.8449 2.6943 20.8043 2.10861 20.6881 0.829754C20.6673 0.603907 20.4612 0.435188 20.2426 0.458147C20.017 0.47897 19.8509 0.678121 19.8712 0.903434C19.9853 2.16168 20.033 2.81916 20.1446 4.04768C20.1641 4.26018 20.3429 4.42035 20.5525 4.42035Z" fill="#F0FFF4"/>
<path d="M23.2939 4.48936C23.7666 3.29002 24.0186 2.41406 24.4883 1.22231C24.5713 1.01142 24.4677 0.77329 24.2571 0.689998C24.0472 0.608309 23.8083 0.710287 23.7253 0.921185C23.2489 2.13058 22.999 3.00027 22.5309 4.1893C22.4479 4.39966 22.5515 4.63779 22.7621 4.72108C22.9735 4.80333 23.211 4.70036 23.2939 4.48936Z" fill="#F0FFF4"/>
<path d="M25.8097 5.13381C26.6143 3.98268 27.0241 3.46318 28.0207 2.45301C28.1798 2.2923 28.1782 2.03228 28.0169 1.87317C27.856 1.71513 27.5959 1.71567 27.4371 1.87744C26.4064 2.92125 25.9589 3.48881 25.1375 4.66396C25.0078 4.84977 25.0532 5.10498 25.2387 5.23472C25.4237 5.36448 25.6797 5.31985 25.8097 5.13381Z" fill="#F0FFF4"/>
</svg>
