<svg width="30" height="32" viewBox="0 0 30 32" fill="none" xmlns="http://www.w3.org/2000/svg">
<path d="M14.5495 24.8813C20.3443 25.0188 26.3085 21.7013 26.4453 16.3861C26.5853 10.9374 20.6342 7.43518 15.0014 7.29042C9.33308 7.15911 3.2451 10.3478 3.10589 15.7857C2.96542 21.233 8.91487 24.7365 14.5495 24.8813ZM4.10502 14.1004C4.12564 14.1113 4.14346 14.1259 4.16671 14.1326C4.68019 14.2809 5.21037 14.372 5.74215 14.4027C5.74925 14.4031 5.75611 14.4031 5.76275 14.4031C5.94763 14.4031 6.10255 14.259 6.1133 14.0718C6.12451 13.8782 5.97669 13.7121 5.78288 13.7006C5.30327 13.6732 4.82503 13.5913 4.36167 13.4572C4.35578 13.4555 4.34997 13.4571 4.34408 13.4557C5.98779 9.74569 10.7216 7.87393 14.9836 7.99336C15.233 7.99977 15.4786 8.02082 15.7248 8.03924L15.395 8.96494C15.3298 9.14799 15.4254 9.3489 15.6083 9.41434C15.7895 9.47832 15.9915 9.3852 16.0572 9.20108L16.4389 8.12974C16.4412 8.12333 16.4398 8.11692 16.4417 8.11052C21.1716 8.69652 25.8592 11.8194 25.7426 16.3678C25.7185 17.3026 25.4772 18.1948 25.0592 19.021L24.2351 18.6198C24.0603 18.5343 23.85 18.6075 23.7651 18.7814C23.6802 18.9562 23.7525 19.1667 23.9271 19.2514L24.7093 19.6322C22.927 22.4171 19.0343 24.2969 14.5674 24.1784C14.0798 24.1659 13.6007 24.1218 13.1264 24.0636L13.5743 23.0553C13.6532 22.8782 13.5734 22.6705 13.396 22.5913C13.218 22.5126 13.0107 22.5927 12.9322 22.7698L12.4185 23.9253C12.4126 23.9386 12.4136 23.9525 12.4094 23.9662C9.65312 23.4883 6.92714 22.1747 5.23154 19.9463C5.50346 19.8904 5.76824 19.8005 6.01354 19.6697C6.18492 19.5782 6.24968 19.3653 6.15815 19.1937C6.06685 19.0221 5.85313 18.9585 5.68266 19.0491C5.40704 19.1965 5.10019 19.2791 4.78871 19.2991C4.12392 18.2092 3.77712 17.0232 3.80838 15.804C3.82337 15.222 3.92845 14.6529 4.10502 14.1004Z" fill="#1A202C"/>
<path d="M29.8683 16.2022C29.7189 9.30019 22.5865 4.65906 15.3584 4.47362C7.58422 4.28588 0.498036 8.82698 0.0292239 16.4888C-0.427754 23.9572 4.48418 30.6851 14.0941 31.4016C23.2795 32.0865 31.1192 25.379 29.8683 16.2022ZM15.3403 5.17656C23.6301 5.38908 29.3151 10.9151 29.168 16.6415C28.9961 23.3174 21.8193 27.5715 14.7696 27.3814C6.47985 27.1689 0.794892 21.6429 0.941937 15.9165C1.08493 10.3639 6.85352 4.95517 15.3403 5.17656Z" fill="#1A202C"/>
<path d="M12.8784 15.8012C12.882 15.8063 12.888 15.8079 12.8918 15.8127C12.6956 16.4049 12.8266 17.2437 13.423 17.8825C13.3453 17.8881 13.2684 17.9144 13.2073 17.9718C12.2519 18.8688 11.2339 19.6949 10.1816 20.4275C10.0221 20.5383 9.98293 20.7575 10.0937 20.9168C10.2044 21.0753 10.4229 21.1156 10.5829 21.0042C11.6634 20.2523 12.7082 19.4043 13.6882 18.4844C13.7673 18.4104 13.7998 18.3088 13.794 18.2085C14.1728 18.4812 14.6188 18.6612 15.1955 18.7107C15.502 19.0417 19.528 21.9356 20.8872 22.4801C21.1564 22.5879 21.2992 22.5582 21.3676 22.4783C21.4563 22.3747 21.42 22.1869 21.3719 22.1053C20.3695 20.407 19.2828 18.9163 17.9995 17.1139C18.1892 16.4419 18.0525 15.8073 17.7041 15.338C17.8127 15.2886 17.5318 15.479 20.657 13.0622C20.8103 12.9428 20.838 12.7222 20.719 12.5689C20.6 12.4151 20.379 12.3886 20.2259 12.5066C17.203 14.8818 17.3148 14.7074 17.2398 14.8901C17.2194 14.8756 17.2045 14.8589 17.1833 14.8448C17.1071 14.7941 17.0186 14.7795 16.9347 14.7925C16.5199 14.0638 15.6294 13.7682 14.7972 13.984C12.9283 12.2673 11.9285 11.6096 9.7596 9.98229C9.62071 9.87794 9.4269 9.89076 9.3031 10.0116C9.17908 10.1329 9.16192 10.3264 9.2626 10.4674C10.744 12.5436 11.3916 13.7184 12.8784 15.8012ZM19.9255 21.1104C18.7609 20.3839 17.4966 19.6687 16.214 18.6446C18.5334 18.1483 16.6836 16.1384 19.9255 21.1104ZM17.3686 16.317C17.6998 18.2816 14.2483 18.6468 13.6116 16.889C13.475 16.5123 13.4752 16.1939 13.6009 15.934C14.1591 17.5358 16.8359 17.373 17.1032 15.7088C17.2573 15.8944 17.3309 16.0921 17.3686 16.317ZM16.6602 15.5019C16.6525 16.0371 16.1523 16.5771 15.306 16.5856C14.6124 16.576 13.9742 16.1051 13.9834 15.463C13.9928 14.8063 14.6708 14.3793 15.3131 14.3793C16.0148 14.3793 16.6695 14.8498 16.6602 15.5019ZM14.1141 14.3129C13.8023 14.5553 13.6239 14.8479 13.5514 15.1709C13.4705 15.1487 13.3843 15.1547 13.3083 15.1906C10.5814 11.3349 9.73381 10.3371 14.1141 14.3129Z" fill="#1A202C"/>
<path d="M17.6164 3.94826C17.8242 3.94826 17.9857 3.77019 17.967 3.56476C17.8671 2.46879 17.8322 1.96677 17.7327 0.870606C17.7148 0.677023 17.5382 0.532408 17.3508 0.552086C17.1574 0.569934 17.0151 0.740636 17.0325 0.933761C17.1302 2.01226 17.1712 2.57581 17.2668 3.62883C17.2835 3.81097 17.4368 3.94826 17.6164 3.94826Z" fill="#1A202C"/>
<path d="M19.9662 4.00729C20.3714 2.97928 20.5874 2.22846 20.9899 1.20696C21.0611 1.02619 20.9723 0.822084 20.7918 0.750692C20.6119 0.680672 20.4071 0.768082 20.336 0.948852C19.9276 1.98548 19.7134 2.73092 19.3122 3.75009C19.2411 3.9304 19.3298 4.13451 19.5104 4.2059C19.6915 4.27641 19.8952 4.18815 19.9662 4.00729Z" fill="#1A202C"/>
<path d="M22.1226 4.55968C22.8123 3.573 23.1635 3.12772 24.0177 2.26185C24.1541 2.1241 24.1527 1.90123 24.0145 1.76485C23.8765 1.62939 23.6537 1.62985 23.5175 1.76851C22.634 2.66321 22.2505 3.14968 21.5464 4.15696C21.4352 4.31622 21.4741 4.53497 21.6332 4.64618C21.7917 4.7574 22.0112 4.71915 22.1226 4.55968Z" fill="#1A202C"/>
</svg>
