<svg width="40" height="36" viewBox="0 0 40 36" fill="none" xmlns="http://www.w3.org/2000/svg">
<path d="M17.481 25.9269C17.9923 24.9715 17.6322 23.7826 16.6769 23.2713C15.7215 22.76 14.5325 23.1201 14.0213 24.0754C13.51 25.0308 13.87 26.2198 14.8254 26.731C15.7808 27.2423 16.9697 26.8823 17.481 25.9269Z" fill="#1A202C"/>
<path d="M24.5225 26.9613C25.6056 26.9613 26.4837 26.0832 26.4837 25C26.4837 23.9169 25.6056 23.0388 24.5225 23.0388C23.4393 23.0388 22.5613 23.9169 22.5613 25C22.5613 26.0832 23.4393 26.9613 24.5225 26.9613Z" fill="#1A202C"/>
<path d="M10.7939 14.1688C11.3734 14.1688 11.8192 13.7231 11.8192 13.1436C11.8192 12.5642 11.3735 12.1184 10.7939 12.1184C10.2145 12.1184 9.76874 12.5641 9.76874 13.1436C9.76874 13.723 10.259 14.1688 10.7939 14.1688Z" fill="#1A202C"/>
<path d="M39.6774 14.4361C38.5631 8.24043 33.8829 3.60483 28.0884 1.55449C17.257 -2.27883 2.81527 2.71343 0.363747 14.8819C-0.75059 20.3199 0.586598 27.8973 5.89083 30.7946C6.64859 31.1958 7.27262 30.2597 6.78231 29.6357C5.22227 27.7636 3.84048 25.9807 3.03812 23.6183C2.32497 21.5233 2.05751 19.2501 2.28036 17.0215C2.72607 12.0293 5.6679 7.7502 9.90239 5.16495C18.7725 -0.228405 33.4371 1.95567 37.0921 12.787C39.0533 18.5815 37.4041 25.1338 33.5262 29.7248C32.6348 30.7945 34.1503 32.3101 35.0418 31.2403C38.9642 26.5601 40.7918 20.4981 39.6774 14.4361Z" fill="#1A202C"/>
<path d="M27.91 29.8585C29.8266 29.2791 30.3616 27.5407 30.317 25.4458C30.2278 22.2365 30.6735 10.7366 30.6735 10.5137C30.6735 9.6222 30.5398 8.68619 30.1386 7.88383C28.9352 5.74428 25.8596 5.56603 23.6755 5.29858C21.8926 5.07573 20.0651 5.03112 18.2822 5.07572C16.6329 5.12033 14.85 5.07572 13.2454 5.52143C11.0167 6.14546 10.0361 8.41866 9.85787 10.5582C9.76874 11.8954 12.0419 11.8508 11.8637 10.5582C11.7746 9.88957 11.5517 8.55238 12.2649 8.28493C12.5323 8.1958 19.8423 7.88375 22.2938 7.83923C24.0322 7.79462 27.9546 7.03695 28.8015 8.99817C29.2027 9.88965 28.6232 25.312 28.3112 26.4263C27.91 27.8081 26.9294 27.8972 25.6368 27.9418C23.2744 28.0309 13.8695 28.0309 13.2455 27.8972C12.3986 27.6744 12.1311 27.0948 11.9529 26.2926C11.2843 22.8604 11.9529 19.25 11.4626 15.8178C11.3735 15.1047 10.17 15.1047 10.0363 15.8178C9.94715 16.3973 9.85795 16.9768 9.85795 17.5562C9.81334 18.5814 9.45677 26.0697 10.5266 28.2092C11.0169 29.2344 11.9975 29.7247 13.1118 29.903C12.6215 30.527 10.4375 33.7808 10.17 34.8951C10.0363 35.43 10.6603 36.0095 11.1952 35.6529C11.9975 35.118 12.6215 34.2711 13.201 33.4688C14.9394 33.9145 22.6952 33.9591 24.7009 33.6917C25.6815 33.5579 25.6815 31.8196 24.7009 31.6858C22.6951 31.4184 15.8754 31.463 14.5382 31.5967C14.8948 31.1064 15.1623 30.5715 15.3851 30.0367C16.1429 30.0813 22.9625 30.3487 25.7261 30.1258C26.1273 31.1955 28.8908 35.0289 29.8714 35.6529C30.4063 36.0095 31.0303 35.43 30.8966 34.8951C30.629 33.8256 28.4003 30.4825 27.91 29.8585Z" fill="#1A202C"/>
<path d="M13.7358 15.9963C13.6467 17.1107 13.7358 18.2695 13.7804 19.3838C13.825 20.0525 13.7358 20.8102 14.4044 21.2113C15.1176 21.657 25.7706 21.4342 26.4838 21.033C27.1078 20.6764 27.1078 20.097 27.1524 19.473C27.197 18.3586 27.2862 17.1997 27.2862 16.0854C27.2862 14.882 25.4141 14.9265 25.4587 16.0854C25.5033 16.8432 25.5033 19.3838 25.5033 19.6513C25.4141 19.5622 15.7417 19.5176 15.6972 19.5176C15.6972 19.473 15.6972 19.4284 15.6972 19.3838C15.6972 18.5816 15.608 17.7792 15.608 16.9323C15.608 16.442 15.608 14.5699 15.92 14.3917C16.2766 14.2133 24.9684 14.3471 26.7067 14.1242C27.3308 14.0351 27.4645 13.2773 26.8405 13.0545C24.5672 12.2522 21.8483 12.5196 19.4859 12.5196C18.3269 12.5196 17.1235 12.5196 15.9646 12.5642C13.914 12.6533 13.8695 14.3471 13.7358 15.9963Z" fill="#1A202C"/>
<path d="M23.6756 11.0487C24.2551 10.6475 24.2551 9.88975 23.6756 9.44404C22.9625 8.90914 18.3269 9.13207 17.3017 9.48865C16.5439 9.7115 16.5439 10.7812 17.3017 11.0042C18.2823 11.3607 22.9179 11.5836 23.6756 11.0487Z" fill="#1A202C"/>
</svg>
