<svg width="34" height="39" viewBox="0 0 34 39" fill="none" xmlns="http://www.w3.org/2000/svg">
<path d="M13.0054 31.6204C12.577 31.6204 12.1485 31.7918 11.8914 32.0917C11.6343 32.3488 11.4201 32.8201 11.4201 33.2057C11.4201 33.6341 11.5915 34.0626 11.8914 34.3197C12.1913 34.6196 12.5769 34.791 13.0054 34.791C13.4339 34.791 13.8623 34.6196 14.1194 34.3197C14.3765 34.0626 14.5907 33.5913 14.5907 33.2057C14.5907 32.7773 14.4193 32.3488 14.1194 32.0917C13.8195 31.7917 13.4338 31.6204 13.0054 31.6204Z" fill="#1A202C"/>
<path d="M25.6021 25.9217C25.6021 24.3792 23.1599 24.3364 23.1599 25.9217C23.1599 26.8214 23.2028 27.7212 23.2028 28.621C16.476 28.8352 9.53494 28.4496 2.85093 29.3494C2.72239 20.4803 2.63672 11.5684 2.89381 2.69924C6.19294 2.5707 19.3467 2.91346 22.6458 2.74212C22.6887 3.042 22.9457 5.35573 23.0742 6.16979C23.2028 7.15527 24.5738 6.76964 24.7023 5.95558C24.788 5.31285 25.0451 2.18514 25.088 1.41388C25.1308 0.728356 24.4881 0.171382 23.8026 0.128508C20.1178 -0.0429099 5.3788 -0.00011248 1.69403 0.256976C1.00851 0.342647 0.45154 0.813951 0.45154 1.54234C0.194451 13.2821 0.45154 25.0648 0.580084 36.8046C0.580084 37.4473 1.09426 37.9614 1.73691 37.9614C6.10719 38.0471 10.4346 38.0471 14.8049 37.9614C17.6756 37.9185 20.5462 37.9185 23.4169 37.5757C24.0596 37.4901 24.8308 37.4472 25.2164 36.8046C25.7734 35.7763 25.5163 33.7196 25.5592 32.6057C25.6021 30.3776 25.6021 28.1497 25.6021 25.9217ZM2.89373 35.6477C2.89373 34.0196 2.85086 32.4343 2.85086 30.8062C6.23566 31.0204 9.66333 30.9776 13.0482 31.106C16.433 31.1917 19.775 31.2775 23.1598 31.2346C23.1598 31.3631 23.1598 33.8053 22.9884 35.2621C22.8171 35.2621 9.40632 35.7334 2.89373 35.6477Z" fill="#1A202C"/>
<path d="M30.4437 10.5401C28.1728 9.94024 25.8592 11.0971 23.7169 11.7826C21.1889 12.6395 13.134 15.5101 12.7054 15.7244C12.5769 15.6388 8.93502 14.182 8.03528 13.7963C7.56398 13.5821 7.0498 13.6678 6.74991 14.1391C6.45003 14.6104 6.10719 15.0817 5.8073 15.5101C5.63589 15.81 5.63589 16.2385 5.8073 16.5384C7.26409 18.6379 8.80655 20.6945 10.3061 22.751C10.606 23.1367 11.1202 23.4794 11.6344 23.308C12.4484 23.0081 16.9044 21.08 16.4331 21.2943C17.7613 20.7373 17.1615 18.595 15.8332 19.152C14.4622 19.7089 13.0483 20.2231 11.6772 20.7801C10.4347 19.152 9.14923 17.5238 7.86386 15.9385C7.90674 15.8956 7.90674 15.8528 7.94953 15.7671C9.32057 16.2813 10.6488 16.9239 12.0199 17.3952C13.6481 17.9522 16.3473 16.2812 17.7612 15.7242C19.8607 14.8673 21.9601 14.1389 24.1024 13.4106C26.2019 12.725 28.3442 11.611 30.5293 12.2965C30.9578 12.4251 32.2431 12.6393 31.7718 13.4534C31.6862 13.6248 25.5163 16.067 24.1024 16.7525C24.0595 16.1526 24.0167 15.5957 23.931 15.0387C23.8025 14.2246 22.6028 14.3532 22.4314 15.0387C21.7887 17.181 21.9601 19.7089 22.1743 21.9369C21.9172 22.0226 21.6602 22.1083 21.3603 22.194C20.889 21.5085 20.5462 20.6515 20.1178 20.0088C19.5608 19.1091 19.0466 18.2521 18.5324 17.3523C17.8897 16.1955 16.0902 17.2238 16.7329 18.3806C17.7184 20.0944 18.7467 21.8512 19.8178 23.4793C20.7604 24.8932 22.0887 23.9506 23.4169 23.5222C23.8025 23.3936 24.1453 23.008 24.1024 22.6224C24.0167 20.9085 24.1453 19.1091 24.1024 17.3524C26.0305 16.924 33.4428 14.953 33.6142 13.4106C33.9999 11.6541 31.7719 10.8828 30.4437 10.5401Z" fill="#1A202C"/>
<path d="M20.1606 9.64039C20.2892 10.0688 20.4177 10.4545 20.5034 10.8829C20.8462 12.0397 22.6457 11.5256 22.3029 10.3687C22.0887 9.59752 21.8316 8.82625 21.6174 8.09786C21.446 7.54088 20.8034 7.24092 20.2464 7.54088C19.6037 7.92651 18.961 8.14073 18.1898 8.26927C17.7184 8.35494 17.2471 8.48349 16.9473 8.95479C16.6474 9.46897 16.6902 10.1973 16.6474 10.7115C16.5617 11.5255 16.6045 12.2968 16.476 13.068C16.4331 13.5822 17.2471 13.6678 17.3329 13.1965C17.4614 12.5967 17.9327 10.4544 18.2755 9.94027C18.8324 9.68319 19.9893 9.72606 20.1606 9.64039Z" fill="#1A202C"/>
<path d="M14.4193 5.22703C11.2915 5.18415 8.12094 5.09848 4.99323 5.44124C4.22204 5.52691 4.17917 6.59807 4.99323 6.68374C8.12102 6.94083 11.2916 6.76941 14.4193 6.68374C15.3619 6.68381 15.3619 5.22703 14.4193 5.22703Z" fill="#1A202C"/>
<path d="M11.6343 9.81157C12.1485 9.55448 12.1913 8.65475 11.6343 8.39766C10.6488 7.96923 6.02145 8.5262 5.03605 8.69755C4.30765 8.82609 4.56474 9.81157 5.20747 9.89724C6.19287 10.0259 10.7346 10.2829 11.6343 9.81157Z" fill="#1A202C"/>
<path d="M5.29312 26.7786C6.87845 26.7786 8.4637 26.8643 10.049 26.6929C11.1202 26.5644 11.1631 25.0648 10.049 24.9791C8.4637 24.8935 6.87845 25.1077 5.29312 25.1506C4.30764 25.2362 4.26484 26.8214 5.29312 26.7786Z" fill="#1A202C"/>
</svg>
