<svg width="30" height="30" viewBox="0 0 30 30" fill="none" xmlns="http://www.w3.org/2000/svg">
<path d="M0.57772 29.6C2.63139 29.3019 4.65186 28.8051 6.70553 28.5732C9.05727 28.3082 11.4422 28.2088 13.827 28.2088C18.9612 28.2419 23.8634 28.6394 28.8981 29.7987C29.9912 30.0637 30.4881 28.3413 29.3619 28.1095C28.5669 27.9439 28.037 27.9107 27.242 27.7783C27.2088 26.5858 27.2088 25.3602 27.242 24.1679C27.7388 24.0685 28.2688 23.8697 28.6662 23.5716C29.4281 23.0417 29.9581 22.1804 29.7593 21.253C29.5937 20.5243 29.0637 19.9611 28.3681 19.7955C28.2687 19.0668 27.7388 18.4375 26.9438 18.3381C26.2814 18.2719 25.8176 18.7025 25.1883 18.8019C24.6914 18.9012 24.2608 19.0006 23.8302 19.3318C22.406 20.5243 23.3003 22.876 24.9565 22.7435C25.0558 23.2073 25.354 23.6378 25.7845 23.936C25.9833 24.0685 26.2151 24.1678 26.447 24.201C26.2152 25.294 26.1158 26.4865 26.1489 27.6458C24.9565 27.447 23.764 27.3145 22.6047 27.182C22.8366 20.6567 22.7041 14.1646 22.7703 7.63929C22.7703 6.54622 23.0353 5.22126 21.8429 4.65821C21.2798 4.39323 11.1109 4.327 7.89798 4.26071C7.53362 4.26071 7.20241 4.59192 7.23549 4.92319C7.43424 12.3428 7.26864 19.7955 7.69923 27.2152C7.26864 27.2814 6.87114 27.3145 6.44055 27.3808C5.71184 27.4802 4.94999 27.6126 4.22128 27.7451C4.18813 26.5527 4.18813 25.3934 4.22128 24.201C4.71815 24.1016 5.24811 23.9028 5.64555 23.6047C6.40741 23.0747 6.93737 22.2135 6.73862 21.286C6.57301 20.5573 6.04305 19.9942 5.34743 19.8286C5.24805 19.0999 4.71809 18.4706 3.92315 18.3712C3.26067 18.305 2.79694 18.7356 2.1676 18.8349C1.57141 18.8681 1.14077 18.9674 0.710181 19.3318C-0.714097 20.5243 0.18022 22.876 1.83639 22.7435C1.93577 23.2073 2.23389 23.6378 2.66448 23.936C2.86323 24.0685 3.09506 24.1678 3.32696 24.201C3.06198 25.4265 2.99575 26.7514 3.06198 27.977C2.10143 28.2089 1.17397 28.507 0.279595 28.9707C-0.150991 29.1031 0.18022 29.6662 0.57772 29.6ZM25.9833 21.816C25.9833 21.3523 25.2877 21.0873 25.0227 21.551C24.9896 21.6173 24.9565 21.6835 24.9565 21.7498C24.294 21.6835 23.8303 21.0873 24.1947 20.3917C24.4596 19.8949 24.9234 19.8949 25.3871 19.7624C25.5527 19.7293 25.7183 19.7293 25.884 19.663C26.0496 19.5968 26.1821 19.4974 26.3477 19.3649C27.1426 19.398 27.4739 19.6961 27.3083 20.2261C27.2751 20.4911 27.5732 20.723 27.8051 20.723C28.3351 20.6899 28.7326 21.0874 28.7326 21.6173C28.7326 22.1804 28.2357 22.611 27.772 22.8098C26.7782 23.3397 26.0495 22.9422 25.9833 21.816ZM13.6283 26.7514C13.4627 26.7514 13.2971 26.7514 13.1314 26.7514C13.5289 25.5921 13.3633 23.9028 13.297 22.9422C13.2639 22.7435 13.2308 22.2135 13.1976 22.2467C13.297 22.1473 14.3569 22.3792 14.5557 22.3792C15.1188 22.4123 15.6819 22.4123 16.2449 22.3792C16.2781 23.8366 16.2781 25.294 16.2449 26.7514C15.3838 26.7182 14.5226 26.7182 13.6283 26.7514ZM8.52731 5.58561C11.1109 5.65184 19.193 5.81745 20.6173 5.91683C21.0148 5.94997 21.1142 5.85059 21.2467 6.14866C21.346 6.31427 21.1804 7.1755 21.1804 7.37425C21.1473 8.10296 21.0811 8.86481 21.0479 9.59353C20.7498 15.357 20.7167 21.1535 20.4517 26.917C19.5905 26.8508 18.7293 26.8176 17.9012 26.7845C17.9344 24.9958 17.9344 23.2071 17.9012 21.4516C17.9012 20.8885 17.4044 20.5573 16.8744 20.6567C15.7151 20.8885 14.5889 20.6898 13.4296 20.7229C12.7009 20.7229 11.9059 20.7891 11.7734 21.6503C11.7072 22.0478 11.8728 22.4784 11.939 22.8759C12.0384 23.4721 12.0716 24.0684 12.0716 24.6977C12.0716 25.3933 11.9059 26.1551 11.9722 26.8507C10.846 26.9169 9.7529 26.9832 8.65983 27.1157C8.72606 19.8949 8.65977 12.7402 8.52731 5.58561ZM2.92946 21.816C2.92946 21.3523 2.23389 21.0873 1.96891 21.551C1.93577 21.6504 1.90268 21.6835 1.90268 21.7498C1.2402 21.6835 0.77647 21.0873 1.14083 20.3917C1.40581 19.8949 1.86954 19.8949 2.33327 19.7624C2.49887 19.7293 2.66448 19.7293 2.83014 19.663C2.99575 19.5968 3.12827 19.4974 3.29387 19.3649C4.08881 19.398 4.42008 19.6961 4.25442 20.2261C4.22128 20.4911 4.5194 20.723 4.7513 20.723C5.28126 20.6899 5.67876 21.0874 5.67876 21.6173C5.67876 22.1804 5.18188 22.611 4.71821 22.8098C3.69131 23.3397 2.9626 22.9422 2.92946 21.816Z" fill="#1A202C"/>
<path d="M11.939 2.04139C11.7734 1.87578 11.5747 1.74326 11.3759 1.64389C11.6078 1.51137 11.7734 1.31268 11.8728 1.11393C11.9722 0.848945 11.7072 0.650195 11.5085 0.650195C11.3097 0.617051 11.0116 0.815801 10.846 0.915176C10.8128 0.915176 10.7797 0.948321 10.7797 0.948321C10.7135 0.716485 10.6804 0.451445 10.6141 0.219609C10.5479 -0.0122266 10.1173 -0.0453712 10.0842 0.219609C10.051 0.48459 10.0179 0.716485 9.9848 0.981465C9.81919 0.915235 9.65359 0.81586 9.48792 0.749629C9.15671 0.584024 8.89173 1.04775 9.1898 1.2465C9.38855 1.34588 9.5873 1.47834 9.78599 1.61086C9.52101 1.80961 9.28912 2.00836 9.05728 2.30643C8.92476 2.47203 9.05728 2.67078 9.25603 2.63764C9.48787 2.60449 9.68662 2.53826 9.91851 2.47203C9.91851 2.77016 9.95166 3.03514 10.0841 3.23389C10.2497 3.53201 10.7466 3.5651 10.9122 3.23389C11.0447 2.96891 11.0447 2.60455 11.0116 2.27334C11.2434 2.37272 11.5085 2.47209 11.7734 2.50518C11.9059 2.47203 12.1377 2.20705 11.939 2.04139Z" fill="#1A202C"/>
<path d="M16.5431 2.04139C16.3775 1.87578 16.1788 1.74326 15.98 1.64389C16.2119 1.51137 16.3775 1.31268 16.4769 1.11393C16.5763 0.848945 16.3113 0.650195 16.1126 0.650195C15.9138 0.617051 15.6157 0.815801 15.4501 0.915176C15.4169 0.915176 15.3838 0.94832 15.3838 0.94832C15.3176 0.716485 15.2845 0.451445 15.2182 0.219609C15.152 -0.0122266 14.7214 -0.0453712 14.6883 0.219609C14.6551 0.48459 14.622 0.716485 14.5889 0.981465C14.4233 0.915235 14.2577 0.81586 14.092 0.749629C13.7608 0.584024 13.4958 1.04775 13.7939 1.2465C13.9595 1.31273 14.1583 1.41211 14.357 1.54463C14.092 1.74338 13.8601 1.94213 13.6283 2.2402C13.4958 2.4058 13.6283 2.60455 13.827 2.57141C14.0589 2.53826 14.2576 2.47203 14.4895 2.4058C14.4895 2.70393 14.5227 2.96891 14.6551 3.16766C14.8207 3.46578 15.3176 3.49887 15.4832 3.16766C15.6157 2.90268 15.6157 2.53832 15.5826 2.20711C15.8145 2.30649 16.0795 2.40586 16.3444 2.43895C16.51 2.47203 16.7087 2.20705 16.5431 2.04139Z" fill="#1A202C"/>
<path d="M21.1473 2.04138C20.9485 1.87577 20.7829 1.74325 20.5842 1.61079C20.816 1.47827 20.9817 1.27958 21.0811 1.08083C21.1804 0.815849 20.9155 0.617099 20.7167 0.617099C20.518 0.583954 20.2198 0.782704 20.0542 0.882079C20.0211 0.882079 19.988 0.915224 19.988 0.915224C19.9218 0.683388 19.8886 0.418349 19.8224 0.186513C19.7562 -0.0453229 19.3255 -0.0784675 19.2924 0.186513C19.2593 0.451493 19.2262 0.683388 19.1931 0.948369C19.0274 0.882138 18.8618 0.782763 18.6962 0.716533C18.365 0.550927 18.1 1.01466 18.3981 1.21341C18.5968 1.31278 18.7956 1.44524 18.9942 1.57776C18.6961 1.74337 18.4643 1.97526 18.2324 2.24024C18.0999 2.40585 18.2324 2.6046 18.4311 2.57146C18.663 2.53831 18.8617 2.47208 19.0936 2.40585C19.0936 2.70397 19.1268 2.96896 19.2592 3.16771C19.4248 3.46583 19.9217 3.49892 20.0873 3.16771C20.2198 2.90273 20.2198 2.53837 20.1867 2.20716C20.4185 2.30653 20.6836 2.40591 20.9485 2.43899C21.1141 2.47202 21.3129 2.20704 21.1473 2.04138Z" fill="#1A202C"/>
<path d="M12.8002 12.5746C13.1314 11.9784 12.8996 11.4484 12.8334 10.786C12.7671 10.0904 12.734 9.42792 12.6678 8.7323C12.6346 8.23542 11.8728 8.06982 11.7403 8.59978C11.5747 9.32849 11.5415 10.0241 11.5415 10.7859C11.5415 11.4484 11.4422 12.1771 11.9721 12.6739C12.204 12.939 12.6346 12.8727 12.8002 12.5746Z" fill="#1A202C"/>
<path d="M12.6014 19.2324C12.9989 18.603 12.8002 17.7749 12.767 17.0462C12.7339 16.3507 12.767 15.622 12.5021 14.9926C12.3365 14.6282 11.8727 14.7276 11.674 14.9926C11.2434 15.5557 11.1771 16.4831 11.1109 17.2118C11.0446 17.9737 11.0115 18.7686 11.5084 19.398C11.8396 19.6961 12.4027 19.5636 12.6014 19.2324Z" fill="#1A202C"/>
<path d="M17.57 12.0777C17.57 10.8853 17.2719 9.59347 17.0069 8.43417C16.9075 8.03667 16.3444 8.13605 16.3113 8.53355C16.2119 9.69284 16.0795 10.9184 16.2451 12.0777C16.3775 12.9058 17.57 12.939 17.57 12.0777Z" fill="#1A202C"/>
<path d="M17.2719 18.8018C17.57 18.1724 17.4706 17.3444 17.4375 16.6488C17.3712 16.0195 17.3049 15.357 16.9075 14.8602C16.8081 14.7276 16.51 14.7276 16.4106 14.8602C16.0131 15.357 15.9469 16.0195 15.8807 16.6488C15.8144 17.3444 15.7151 18.1394 16.0463 18.8018C16.2782 19.2655 17.04 19.2655 17.2719 18.8018Z" fill="#1A202C"/>
</svg>
