<svg width="46" height="28" viewBox="0 0 46 28" fill="none" xmlns="http://www.w3.org/2000/svg">
<path d="M9.61646 23.0437C10.6182 23.6447 11.9704 23.1939 12.3711 22.0921C12.5714 21.491 12.4212 20.84 11.9704 20.3892C11.72 20.1888 11.4195 20.0387 11.0689 19.9885C10.518 19.7381 9.71669 19.8884 9.26592 20.3391C8.41448 21.1405 8.66488 22.4427 9.61646 23.0437Z" fill="#1A202C"/>
<path d="M33.4562 23.0437C34.4579 23.6447 35.8102 23.1939 36.2108 22.0921C36.4112 21.491 36.261 20.84 35.8102 20.3892C35.5598 20.1888 35.2593 20.0387 34.9087 19.9885C34.3578 19.7381 33.5565 19.8884 33.1057 20.3391C32.2543 21.1405 32.5047 22.4427 33.4562 23.0437Z" fill="#1A202C"/>
<path d="M41.9204 4.71315C42.0206 5.51447 42.0206 6.31579 42.1708 7.06708C42.3712 8.16892 44.1241 8.1188 44.3745 7.06708C44.7752 5.31418 44.3745 2.60961 42.6216 1.70815C41.5699 1.15723 36.5114 1.00697 35.2092 1.10711C35.1591 1.05699 35.1591 1.05699 35.1091 1.00697C34.5081 0.456048 33.9071 0.556191 33.1057 0.556191C31.4028 0.556191 5.40947 0.556191 1.90358 0.556191C1.30255 0.556191 0.801743 1.05699 0.801743 1.65803C0.801743 8.26906 0.350967 14.9302 0.551342 21.4911C0.551342 21.9419 0.851859 22.3426 1.30264 22.4928C2.2041 22.7432 3.15577 22.7432 4.10735 22.6431C4.60815 25.4478 7.21258 27.4511 10.1173 27.5012C13.0723 27.5513 15.6767 25.5981 16.3778 22.8435C18.1307 23.0939 19.9839 22.9436 21.6867 22.9436H27.9472C28.5483 25.5981 31.1025 27.4511 33.9072 27.5012C36.9122 27.5513 39.6168 25.4979 40.2177 22.5931C41.4698 22.6932 43.3229 23.1941 44.2745 22.1924C45.5767 20.79 45.6769 18.5864 45.3262 16.7833C44.5249 12.6765 41.3196 9.27076 38.9155 6.01536C38.2644 5.11389 37.6133 4.16223 36.9622 3.21065C37.9137 3.41102 41.72 3.1105 41.9204 4.71315ZM30.1507 2.55958C30.1507 3.76157 30.4011 9.52125 30.4011 9.62139C27.7968 9.52125 25.1423 9.42102 22.538 9.37099C22.538 7.1172 22.5881 4.81338 22.3877 2.6097H23.8902C25.9938 2.55958 28.0973 2.55958 30.1507 2.55958ZM20.8852 2.55958C20.6849 4.81338 20.735 7.06708 20.735 9.32088C19.3827 9.32088 13.6231 9.27076 12.0204 9.27076C12.0204 7.06708 12.0705 4.81329 11.9203 2.60961C14.8752 2.60961 17.8802 2.60961 20.8852 2.55958ZM10.1674 9.27076C7.76332 9.27076 5.30924 9.32088 2.90528 9.52116C2.95539 7.26737 2.95539 4.96355 2.95539 2.70975C5.40947 2.70975 7.81353 2.65964 10.2676 2.65964C10.1173 4.8634 10.1674 7.06708 10.1674 9.27076ZM43.1224 20.3894C43.0723 20.4395 43.0223 20.5898 42.9721 20.6899C42.3711 20.5396 40.9187 20.6398 40.3177 20.6398C40.1674 19.3877 39.6666 18.2357 38.7651 17.3343C37.6131 16.1823 36.311 15.982 34.7083 15.8318C32.8551 15.6815 33.1056 18.937 35.0588 18.4361C37.3126 17.8351 38.6648 20.2391 38.0638 22.2424C37.5129 24.0956 35.5596 25.1473 33.7066 24.9469C31.9537 24.7966 30.401 23.4444 30.3509 21.5913C30.3509 20.7398 30.5513 19.6881 31.0521 18.9368C31.4528 18.3358 32.0538 18.1855 32.5045 17.7348C32.7549 17.4844 32.7549 17.0838 32.5045 16.8334C31.603 15.9319 30.2007 16.4828 29.3993 17.234C28.4978 18.0855 28.047 19.3376 27.8968 20.5897C25.8433 20.5897 18.2306 20.5396 16.5277 20.7399C16.4276 19.4377 15.8767 18.2357 14.9251 17.3343C13.7731 16.1823 12.471 15.982 10.8683 15.8318C9.01515 15.6815 9.26564 18.937 11.2188 18.4361C13.4726 17.8351 14.8249 20.2391 14.2238 22.2424C13.6729 24.0956 11.7196 25.1473 9.86659 24.9469C8.11369 24.7966 6.56107 23.4444 6.51096 21.5913C6.51096 20.7398 6.71133 19.6881 7.21213 18.9368C7.6128 18.3358 8.21383 18.1855 8.66452 17.7348C8.91492 17.4844 8.91492 17.0838 8.66452 16.8334C7.76305 15.9319 6.3607 16.4828 5.55929 17.234C4.60771 18.1355 4.15693 19.5379 4.00667 20.8401C3.50587 20.79 3.00498 20.7399 2.50417 20.6397C2.65443 17.4844 2.70455 14.3292 2.80469 11.1739C7.41242 11.3743 26.2438 11.224 31.0519 11.3242C32.1036 12.1255 41.3691 14.5796 42.4209 14.5796C43.473 16.5329 44.0239 18.5864 43.1224 20.3894ZM40.2175 11.1739C40.5181 11.6247 40.8686 12.0754 41.2192 12.5763C40.8687 12.5262 40.4679 12.426 40.1675 12.3759C38.9154 12.0754 32.5548 10.0721 32.3044 9.97185C32.3044 9.97185 31.9538 3.46096 31.8536 2.55949C32.5047 2.55949 33.1057 2.60961 33.7067 2.50938C33.9571 2.8099 34.4079 3.3107 34.458 3.41084C36.4112 5.96524 38.3144 8.56958 40.2175 11.1739Z" fill="#1A202C"/>
</svg>
