<svg width="20" height="21" viewBox="0 0 20 21" fill="none" xmlns="http://www.w3.org/2000/svg">
<path d="M10.8231 3.8911C10.8231 3.8911 13.1605 3.8911 13.018 3.60605C12.8754 3.321 10.4525 2.69389 7.18156 2.95044C3.91059 3.20698 2.27867 4.37568 2.16464 6.57058C2.05063 8.7655 1.9081 9.90571 2.07914 13.0341C2.13615 13.9463 1.93661 15.6851 3.61841 17.1959C5.30021 18.7066 14.2152 18.3361 15.726 17.5664C17.2367 16.7968 17.8354 15.0865 17.8923 12.2716C17.9493 9.44963 18.2059 5.80807 16.6952 4.41132C15.1843 3.01457 13.018 2.644 13.132 2.90054C13.246 3.15709 15.84 4.18328 16.4386 6.29266C17.0372 8.40201 17.3793 13.9249 16.0965 15.5212C14.8138 17.1175 12.8184 17.032 9.66149 16.975C6.49742 16.918 4.61608 16.8039 3.9961 15.1506C3.36899 13.4973 3.426 7.40436 4.05311 5.80807C4.68023 4.21178 6.41904 4.09777 8.41437 4.01225C10.3955 3.91961 10.8231 3.8911 10.8231 3.8911Z" fill="#F0FFF4"/>
<path d="M13.2745 8.55875C13.2745 8.55875 11.1081 5.42319 7.83716 7.7606C4.55908 10.098 7.18157 14.4807 10.089 14.2242C12.9966 13.9676 13.8233 12.0293 13.7093 10.5755C13.5952 9.12174 12.6831 8.86516 12.7685 9.12174C12.8541 9.37825 13.8517 11.9153 11.5143 12.8844C9.17687 13.8536 7.18157 12.3998 7.52363 10.1764C7.8657 7.95306 9.60449 7.69647 10.8872 7.75348C12.17 7.8105 13.0251 8.92217 13.3102 8.92217C13.588 8.92929 13.2745 8.55875 13.2745 8.55875Z" fill="#F0FFF4"/>
<path d="M15.0419 6.17163C15.0419 6.17163 14.4717 5.31648 13.7306 5.54452C12.9895 5.77257 13.36 7.02679 14.3577 7.16931C15.3554 7.31183 15.0419 6.17163 15.0419 6.17163Z" fill="#F0FFF4"/>
<path d="M4.01748 13.4618C4.01748 13.4618 3.41888 10.8963 3.50439 8.33081C3.58991 5.76536 4.01748 5.08124 4.44506 4.59665C4.87264 4.11207 5.84181 3.99805 5.84181 3.99805C5.84181 3.99805 4.30254 4.65367 4.04599 7.21913C3.78945 9.78462 3.90347 11.3524 3.90347 11.951C3.90347 12.5496 4.01748 13.4618 4.01748 13.4618Z" fill="#F0FFF4"/>
<path d="M14.7853 4.46112C14.7853 4.46112 15.954 4.77468 16.1535 9.02194C16.3531 13.2692 15.726 15.1434 15.5549 15.514C15.3839 15.8846 15.3839 15.8846 15.3839 15.8846C15.3839 15.8846 16.3246 15.742 16.7236 14.0602C17.1227 12.3784 17.2083 7.42567 16.4101 5.80087C15.612 4.17608 14.7853 4.46112 14.7853 4.46112Z" fill="#F0FFF4"/>
<path d="M10.8231 3.8911C10.8231 3.8911 13.1605 3.8911 13.018 3.60605C12.8754 3.321 10.4525 2.69389 7.18156 2.95044C3.91059 3.20698 2.27867 4.37568 2.16464 6.57058C2.05063 8.7655 1.9081 9.90571 2.07914 13.0341C2.13615 13.9463 1.93661 15.6851 3.61841 17.1959C5.30021 18.7066 14.2152 18.3361 15.726 17.5664C17.2367 16.7968 17.8354 15.0865 17.8923 12.2716C17.9493 9.44963 18.2059 5.80807 16.6952 4.41132C15.1843 3.01457 13.018 2.644 13.132 2.90054C13.246 3.15709 15.84 4.18328 16.4386 6.29266C17.0372 8.40201 17.3793 13.9249 16.0965 15.5212C14.8138 17.1175 12.8184 17.032 9.66149 16.975C6.49742 16.918 4.61608 16.8039 3.9961 15.1506C3.36899 13.4973 3.426 7.40436 4.05311 5.80807C4.68023 4.21178 6.41904 4.09777 8.41437 4.01225C10.3955 3.91961 10.8231 3.8911 10.8231 3.8911Z" fill="#F0FFF4"/>
<path d="M13.2745 8.55875C13.2745 8.55875 11.1081 5.42319 7.83716 7.7606C4.55908 10.098 7.18157 14.4807 10.089 14.2242C12.9966 13.9676 13.8233 12.0293 13.7093 10.5755C13.5952 9.12174 12.6831 8.86516 12.7685 9.12174C12.8541 9.37825 13.8517 11.9153 11.5143 12.8844C9.17687 13.8536 7.18157 12.3998 7.52363 10.1764C7.8657 7.95306 9.60449 7.69647 10.8872 7.75348C12.17 7.8105 13.0251 8.92217 13.3102 8.92217C13.588 8.92929 13.2745 8.55875 13.2745 8.55875Z" fill="#F0FFF4"/>
<path d="M15.0419 6.17163C15.0419 6.17163 14.4717 5.31648 13.7306 5.54452C12.9895 5.77257 13.36 7.02679 14.3577 7.16931C15.3554 7.31183 15.0419 6.17163 15.0419 6.17163Z" fill="#F0FFF4"/>
<path d="M4.01748 13.4618C4.01748 13.4618 3.41888 10.8963 3.50439 8.33081C3.58991 5.76536 4.01748 5.08124 4.44506 4.59665C4.87264 4.11207 5.84181 3.99805 5.84181 3.99805C5.84181 3.99805 4.30254 4.65367 4.04599 7.21913C3.78945 9.78462 3.90347 11.3524 3.90347 11.951C3.90347 12.5496 4.01748 13.4618 4.01748 13.4618Z" fill="#F0FFF4"/>
<path d="M14.7853 4.46112C14.7853 4.46112 15.954 4.77468 16.1535 9.02194C16.3531 13.2692 15.726 15.1434 15.5549 15.514C15.3839 15.8846 15.3839 15.8846 15.3839 15.8846C15.3839 15.8846 16.3246 15.742 16.7236 14.0602C17.1227 12.3784 17.2083 7.42567 16.4101 5.80087C15.612 4.17608 14.7853 4.46112 14.7853 4.46112Z" fill="#F0FFF4"/>
</svg>
