<svg width="20" height="21" viewBox="0 0 20 21" fill="none" xmlns="http://www.w3.org/2000/svg">
<g clip-path="url(#clip0_13_150)">
<path d="M17.372 3.87299C20.4808 4.81768 20.0279 7.72134 19.904 10.6366C19.8382 12.1852 20.0704 14.5972 19.3929 16.0374C18.9594 16.9549 18.0882 16.9897 17.1939 17.0285C12.7997 17.2337 8.33189 17.4157 3.9416 17.2143C1.45606 17.0982 -0.22029 16.351 0.0855672 13.9158C-0.111918 11.5696 0.0623386 9.08794 0.306281 6.78443C0.434081 5.58423 0.693397 4.38022 1.97883 3.98534C2.88474 3.70271 4.04626 3.99311 4.99086 3.95434C6.2104 3.90788 7.41829 3.73751 8.64172 3.72205C11.4525 3.68337 14.2632 3.74139 17.074 3.75694C17.2055 3.75685 17.2984 3.80719 17.372 3.87299ZM13.0978 9.96294C12.0061 9.36289 10.9066 8.7744 9.79149 8.22071C9.07909 7.86451 8.36289 7.5122 7.63503 7.17931C7.60403 7.16386 7.48789 7.12508 7.36018 7.07863C7.67381 9.17309 7.39886 11.4806 7.30983 13.6254C9.29592 12.4872 11.2084 11.2483 13.0978 9.96294Z" fill="#F0FFF4"/>
</g>
<defs>
<clipPath id="clip0_13_150">
<rect width="20" height="20" fill="white" transform="translate(0 0.505371)"/>
</clipPath>
</defs>
</svg>
